<svg version="1.1" xmlns="http://www.w3.org/2000/svg" viewBox="0 0 757 422" width="757" height="422" filter="invert(93%) hue-rotate(180deg)">
  <!-- svg-source:excalidraw -->
  
  <defs>
    <style>
      @font-face {
        font-family: "Virgil";
        src: url("https://excalidraw.com/Virgil.woff2");
      }
      @font-face {
        font-family: "Cascadia";
        src: url("https://excalidraw.com/Cascadia.woff2");
      }
    </style>
  </defs>
  <g transform="translate(124 37.5) rotate(0 9.5 18)"><text x="0" y="26" font-family="Virgil, Segoe UI Emoji" font-size="28px" fill="#000000" text-anchor="start" style="white-space: pre;" direction="ltr">m</text></g><g transform="translate(591.5 44) rotate(0 26.5 18)"><text x="0" y="26" font-family="Virgil, Segoe UI Emoji" font-size="28px" fill="#000000" text-anchor="start" style="white-space: pre;" direction="ltr">f(m)</text></g><g transform="translate(596.5 375) rotate(0 58.5 18)"><text x="0" y="26" font-family="Virgil, Segoe UI Emoji" font-size="28px" fill="#000000" text-anchor="start" style="white-space: pre;" direction="ltr">enc(f(m))</text></g><g transform="translate(59.5 376) rotate(0 41 18)"><text x="0" y="26" font-family="Virgil, Segoe UI Emoji" font-size="28px" fill="#000000" text-anchor="start" style="white-space: pre;" direction="ltr">enc(m)</text></g><g transform="translate(348 10) rotate(0 7.5 18)"><text x="0" y="26" font-family="Virgil, Segoe UI Emoji" font-size="28px" fill="#000000" text-anchor="start" style="white-space: pre;" direction="ltr">f</text></g><g transform="translate(354.5 341) rotate(0 7.5 18)"><text x="0" y="26" font-family="Virgil, Segoe UI Emoji" font-size="28px" fill="#000000" text-anchor="start" style="white-space: pre;" direction="ltr">f</text></g><g stroke-linecap="round"><g transform="translate(154 54) rotate(0 215.17771658038723 -0.23956802216872575)"><path d="M0.53 -0.31 C72.2 -0.28, 359.35 1.04, 431.01 1.11 M-0.65 -1.52 C70.77 -1.88, 358.38 -0.92, 430.06 -0.43" stroke="#000000" stroke-width="1" fill="none"></path></g><g transform="translate(154 54) rotate(0 215.17771658038723 -0.23956802216872575)"><path d="M401.31 9.71 C414.44 4.82, 423.59 2.28, 429.94 -1.76 M402.32 9.15 C411.99 6.73, 422.06 2.47, 429.63 -0.53" stroke="#000000" stroke-width="1" fill="none"></path></g><g transform="translate(154 54) rotate(0 215.17771658038723 -0.23956802216872575)"><path d="M401.41 -10.81 C414.66 -7.82, 423.77 -2.48, 429.94 -1.76 M402.42 -11.37 C412.14 -6.33, 422.18 -3.14, 429.63 -0.53" stroke="#000000" stroke-width="1" fill="none"></path></g></g><g stroke-linecap="round"><g transform="translate(148 395) rotate(0 219.6758294204902 0.14634225032574477)"><path d="M0.88 -1.2 C74.14 -1.26, 366.49 -0.08, 439.47 -0.05 M-0.12 0.79 C73.03 0.9, 365.78 1.63, 438.76 1.46" stroke="#000000" stroke-width="1" fill="none"></path></g><g transform="translate(148 395) rotate(0 219.6758294204902 0.14634225032574477)"><path d="M408.58 12.49 C418.76 8.02, 425.51 3.77, 437.7 2.78 M409.66 12.42 C419.35 8.61, 429.03 5.19, 438.21 0.7" stroke="#000000" stroke-width="1" fill="none"></path></g><g transform="translate(148 395) rotate(0 219.6758294204902 0.14634225032574477)"><path d="M408.59 -8.03 C418.82 -6.46, 425.57 -4.67, 437.7 2.78 M409.67 -8.1 C419.29 -4.87, 428.96 -1.24, 438.21 0.7" stroke="#000000" stroke-width="1" fill="none"></path></g></g><g stroke-linecap="round"><g transform="translate(616 95) rotate(0 -0.40580388148316615 135.83536335306243)"><path d="M0 0.64 C0.15 45.7, 0.61 225.33, 0.65 270.14 M-1.46 -0.07 C-1.39 45.23, -0.13 226.64, 0.04 271.75" stroke="#000000" stroke-width="1" fill="none"></path></g><g transform="translate(616 95) rotate(0 -0.40580388148316615 135.83536335306243)"><path d="M11.4 29.88 C7.71 21.17, 3.74 11.43, 0.96 1.25 M10.42 28.45 C6.28 17.72, 1.78 5.8, 0.8 1.4" stroke="#000000" stroke-width="1" fill="none"></path></g><g transform="translate(616 95) rotate(0 -0.40580388148316615 135.83536335306243)"><path d="M-9.12 29.93 C-7.03 21.21, -5.22 11.45, 0.96 1.25 M-10.1 28.51 C-6.13 17.59, -2.53 5.65, 0.8 1.4" stroke="#000000" stroke-width="1" fill="none"></path></g><g transform="translate(616 95) rotate(0 -0.40580388148316615 135.83536335306243)"><path d="M-9.32 244.69 C-7.28 251.84, -5.41 257.95, 1 272.35 M-10.3 243.26 C-6.63 254.6, -2.94 264.91, 0.83 272.51" stroke="#000000" stroke-width="1" fill="none"></path></g><g transform="translate(616 95) rotate(0 -0.40580388148316615 135.83536335306243)"><path d="M11.2 244.57 C7.46 251.76, 3.55 257.9, 1 272.35 M10.23 243.15 C5.78 254.7, 1.37 265.06, 0.83 272.51" stroke="#000000" stroke-width="1" fill="none"></path></g></g><g stroke-linecap="round"><g transform="translate(134 79) rotate(0 0.17269411755725628 143.6454675104469)"><path d="M-0.34 -0.68 C-0.21 47.3, -0.17 240.02, -0.25 287.97 M1.68 1.58 C1.72 49.23, -1.33 238.55, -1.33 286.35" stroke="#000000" stroke-width="1" fill="none"></path></g><g transform="translate(134 79) rotate(0 0.17269411755725628 143.6454675104469)"><path d="M8.81 27.09 C9.34 20.11, 5.59 16.21, -0.32 -1.59 M10.6 27.91 C6.25 16.77, 2.53 7.01, -0.82 -1.14" stroke="#000000" stroke-width="1" fill="none"></path></g><g transform="translate(134 79) rotate(0 0.17269411755725628 143.6454675104469)"><path d="M-11.71 27.1 C-6.81 20.17, -6.19 16.27, -0.32 -1.59 M-9.92 27.92 C-6.46 16.63, -2.37 6.87, -0.82 -1.14" stroke="#000000" stroke-width="1" fill="none"></path></g><g transform="translate(134 79) rotate(0 0.17269411755725628 143.6454675104469)"><path d="M-12.47 257.65 C-7.58 262.75, -7 270.88, -1.31 285.44 M-10.68 258.47 C-7.67 268.68, -3.67 280.42, -1.81 285.89" stroke="#000000" stroke-width="1" fill="none"></path></g><g transform="translate(134 79) rotate(0 0.17269411755725628 143.6454675104469)"><path d="M8.05 257.83 C8.57 262.84, 4.78 270.93, -1.31 285.44 M9.84 258.65 C5.04 268.94, 1.23 280.61, -1.81 285.89" stroke="#000000" stroke-width="1" fill="none"></path></g></g><g transform="translate(10 215) rotate(0 49 18)"><text x="0" y="26" font-family="Virgil, Segoe UI Emoji" font-size="28px" fill="#000000" text-anchor="start" style="white-space: pre;" direction="ltr">encrypt</text></g><g transform="translate(157 216) rotate(0 50.5 18)"><text x="0" y="26" font-family="Virgil, Segoe UI Emoji" font-size="28px" fill="#000000" text-anchor="start" style="white-space: pre;" direction="ltr">decrypt</text></g><g transform="translate(499 208.5) rotate(0 49 18)"><text x="0" y="26" font-family="Virgil, Segoe UI Emoji" font-size="28px" fill="#000000" text-anchor="start" style="white-space: pre;" direction="ltr">encrypt</text></g><g transform="translate(646 209.5) rotate(0 50.5 18)"><text x="0" y="26" font-family="Virgil, Segoe UI Emoji" font-size="28px" fill="#000000" text-anchor="start" style="white-space: pre;" direction="ltr">decrypt</text></g></svg>