<svg version="1.1" xmlns="http://www.w3.org/2000/svg" viewBox="0 0 347.5 241.76432629786285" width="347.5" height="241.76432629786285" filter="invert(93%) hue-rotate(180deg)">
  <!-- svg-source:excalidraw -->
  
  <defs>
    <style>
      @font-face {
        font-family: "Virgil";
        src: url("https://excalidraw.com/Virgil.woff2");
      }
      @font-face {
        font-family: "Cascadia";
        src: url("https://excalidraw.com/Cascadia.woff2");
      }
    </style>
  </defs>
  <g stroke-linecap="round" transform="translate(81.5 43.5) rotate(0 101 92.50000000000003)"><path d="M67.5 5.31 C78.58 0.15, 93.05 -1.4, 105.67 -0.87 C118.29 -0.35, 131.57 3.23, 143.24 8.45 C154.9 13.68, 166.78 21.65, 175.65 30.47 C184.52 39.3, 192.22 50.25, 196.46 61.4 C200.71 72.56, 201.94 85.53, 201.13 97.42 C200.32 109.32, 196.86 122.17, 191.59 132.77 C186.31 143.37, 178.74 153.27, 169.49 161 C160.24 168.74, 148.21 175.19, 136.07 179.2 C123.94 183.2, 109.69 185.46, 96.71 185.03 C83.73 184.6, 69.82 181.62, 58.21 176.63 C46.6 171.64, 35.66 163.91, 27.04 155.09 C18.42 146.26, 10.81 134.9, 6.48 123.68 C2.15 112.45, 0.46 99.46, 1.06 87.75 C1.66 76.05, 4.82 64.2, 10.09 53.46 C15.36 42.71, 22.59 31.65, 32.68 23.28 C42.78 14.91, 63.46 6.42, 70.68 3.25 C77.9 0.08, 75.46 2.76, 76 4.28 M82.71 0.99 C94.5 -2.33, 110.43 -0.21, 123.11 2.53 C135.78 5.27, 148.22 10.64, 158.76 17.43 C169.3 24.22, 179.54 33.51, 186.34 43.26 C193.14 53.01, 197.39 64.24, 199.56 75.93 C201.73 87.62, 201.89 101.7, 199.37 113.43 C196.85 125.15, 191.88 136.76, 184.43 146.26 C176.98 155.77, 165.57 164.18, 154.67 170.44 C143.77 176.71, 131.91 181.6, 119.04 183.86 C106.17 186.12, 90.12 186.83, 77.45 184.01 C64.78 181.2, 53.46 173.89, 43.02 166.96 C32.57 160.03, 21.95 152.23, 14.77 142.41 C7.59 132.6, 2.08 119.61, -0.06 108.05 C-2.21 96.49, -1.27 84.73, 1.9 73.04 C5.08 61.35, 11.29 47.6, 19.01 37.9 C26.72 28.2, 37.28 20.88, 48.18 14.81 C59.09 8.75, 78.62 3.54, 84.44 1.5 C90.25 -0.55, 82.6 0.92, 83.06 2.53" stroke="#000000" stroke-width="1" fill="none"></path></g><g transform="translate(151.5 10) rotate(0 34 13)"><text x="0" y="19" font-family="Virgil, Segoe UI Emoji" font-size="20px" fill="#000000" text-anchor="start" style="white-space: pre;" direction="ltr">Collect</text></g><g transform="translate(282.5 76.5) rotate(0 27.5 13)"><text x="0" y="19" font-family="Virgil, Segoe UI Emoji" font-size="20px" fill="#000000" text-anchor="start" style="white-space: pre;" direction="ltr">Store</text></g><g transform="translate(256 199.5) rotate(0 36.5 13)"><text x="0" y="19" font-family="Virgil, Segoe UI Emoji" font-size="20px" fill="#000000" text-anchor="start" style="white-space: pre;" direction="ltr">Analyse</text></g><g transform="translate(41 198.5) rotate(0 31 13)"><text x="0" y="19" font-family="Virgil, Segoe UI Emoji" font-size="20px" fill="#000000" text-anchor="start" style="white-space: pre;" direction="ltr">Utilise</text></g><g transform="translate(10 75.5) rotate(0 39.5 13)"><text x="0" y="19" font-family="Virgil, Segoe UI Emoji" font-size="20px" fill="#000000" text-anchor="start" style="white-space: pre;" direction="ltr">Destroy</text></g><g stroke-linecap="round"><g transform="translate(229.77445509565996 52.001922601033016) rotate(0 15.017678664810944 13.16682908963412)"><path d="M-0.17 1.01 C5.17 5.14, 26.51 21.82, 31.76 25.83 M-1.73 0.5 C3.49 4.77, 25.48 19.6, 30.83 23.88" stroke="#000000" stroke-width="1" fill="none"></path></g><g transform="translate(229.77445509565996 52.001922601033016) rotate(0 15.017678664810944 13.16682908963412)"><path d="M12.97 18.29 C17.24 19.16, 21.4 21.08, 29.99 25.25 M10.66 18.2 C15.78 18.59, 21.62 21.97, 31.74 24.19" stroke="#000000" stroke-width="1" fill="none"></path></g><g transform="translate(229.77445509565996 52.001922601033016) rotate(0 15.017678664810944 13.16682908963412)"><path d="M21.18 7.05 C23.3 10.99, 25.21 15.98, 29.99 25.25 M18.86 6.96 C21.8 10.36, 25.47 16.7, 31.74 24.19" stroke="#000000" stroke-width="1" fill="none"></path></g></g><g stroke-linecap="round"><g transform="translate(265.63722754783 127.75096130051645) rotate(55.41450864848073 15.01978353037498 13.325186423687256)"><path d="M-0.19 1.02 C5.09 5.29, 26.54 20.91, 31.79 24.91 M-1.75 0.51 C3.37 5, 25.53 21.88, 30.88 26.14" stroke="#000000" stroke-width="1" fill="none"></path></g><g transform="translate(265.63722754783 127.75096130051645) rotate(55.41450864848073 15.01978353037498 13.325186423687256)"><path d="M13.21 20 C16.46 21.17, 22.59 23.22, 30.37 25.15 M11.49 20.54 C17.41 21, 25.21 24.02, 30.65 25.2" stroke="#000000" stroke-width="1" fill="none"></path></g><g transform="translate(265.63722754783 127.75096130051645) rotate(55.41450864848073 15.01978353037498 13.325186423687256)"><path d="M21.76 9.01 C22.31 13.56, 25.8 18.99, 30.37 25.15 M20.04 9.55 C22.92 13.92, 27.72 20.79, 30.65 25.2" stroke="#000000" stroke-width="1" fill="none"></path></g></g><g stroke-linecap="round"><g transform="translate(176.63722754782998 213.75096130051645) rotate(131.0286215250856 15.347350149443344 13.389046842185763)"><path d="M0 0.36 C5.36 4.71, 26.8 21.49, 32.15 25.66 M-1.46 -0.5 C3.79 4.11, 25.92 22.77, 31.43 27.28" stroke="#000000" stroke-width="1" fill="none"></path></g><g transform="translate(176.63722754782998 213.75096130051645) rotate(131.0286215250856 15.347350149443344 13.389046842185763)"><path d="M12.88 21.09 C18.22 23.1, 23.37 24.14, 30.81 28.08 M11.36 20.3 C18.11 21.76, 21.99 23.85, 31.72 26.46" stroke="#000000" stroke-width="1" fill="none"></path></g><g transform="translate(176.63722754782998 213.75096130051645) rotate(131.0286215250856 15.347350149443344 13.389046842185763)"><path d="M21.79 10.39 C24.44 15.59, 26.93 19.82, 30.81 28.08 M20.28 9.61 C24.5 13.96, 25.93 19, 31.72 26.46" stroke="#000000" stroke-width="1" fill="none"></path></g></g><g stroke-linecap="round"><g transform="translate(67.63722754782998 137.75096130051645) rotate(222.68184113652205 16.221396352937433 12.828784818043943)"><path d="M1.16 -0.62 C6.4 3.59, 27.17 22.05, 32.14 26.28 M0.31 1.67 C5.37 6.06, 25.88 20.56, 31.4 24.56" stroke="#000000" stroke-width="1" fill="none"></path></g><g transform="translate(67.63722754782998 137.75096130051645) rotate(222.68184113652205 16.221396352937433 12.828784818043943)"><path d="M10.77 19.75 C20.12 19.57, 24.55 24.67, 32.56 23.1 M10.95 18.43 C15.99 20.09, 20.6 21.97, 30.43 25.22" stroke="#000000" stroke-width="1" fill="none"></path></g><g transform="translate(67.63722754782998 137.75096130051645) rotate(222.68184113652205 16.221396352937433 12.828784818043943)"><path d="M18.89 8.44 C25.45 12.36, 26.99 21.48, 32.56 23.1 M19.06 7.12 C22.16 11.54, 24.82 16.14, 30.43 25.22" stroke="#000000" stroke-width="1" fill="none"></path></g></g><g stroke-linecap="round"><g transform="translate(101.63722754782998 51.75096130051645) rotate(284.78309889856564 15.965637220898657 13.484747322956082)"><path d="M-0.52 1.04 C4.81 5.42, 26.97 22.39, 32.45 26.43 M1.41 0.54 C6.6 4.59, 26.8 20.48, 31.88 24.79" stroke="#000000" stroke-width="1" fill="none"></path></g><g transform="translate(101.63722754782998 51.75096130051645) rotate(284.78309889856564 15.965637220898657 13.484747322956082)"><path d="M14.39 19.33 C20.75 21.49, 25.33 22.77, 32.39 26.11 M11.76 18.5 C16.88 19.82, 22.2 20.82, 31.05 25.72" stroke="#000000" stroke-width="1" fill="none"></path></g><g transform="translate(101.63722754782998 51.75096130051645) rotate(284.78309889856564 15.965637220898657 13.484747322956082)"><path d="M23.17 8.53 C26.56 14.32, 28.16 19.28, 32.39 26.11 M20.54 7.7 C23.8 11.43, 27.15 14.84, 31.05 25.72" stroke="#000000" stroke-width="1" fill="none"></path></g></g></svg>